<svg width="24" height="28" viewBox="0 0 24 28" fill="none" xmlns="http://www.w3.org/2000/svg">
<path d="M9.93939 0.411194V1.17355C9.93939 1.50388 10.0126 1.83011 10.1538 2.12875L10.2632 2.36029C10.6021 3.07719 11.1826 3.65192 11.9028 3.98372L11.9221 3.9926C12.3727 4.2002 12.863 4.30769 13.3591 4.30769H18.7493C19.0976 4.30769 19.4451 4.33864 19.7879 4.40016L19.9069 4.42151C20.3707 4.50476 20.8205 4.65285 21.2431 4.86142L21.3149 4.89686C21.6491 5.06182 21.9609 5.26859 22.243 5.51221C22.6038 5.82393 22.9116 6.19228 23.1542 6.60283L23.2396 6.74741C23.5028 7.19272 23.7026 7.6804 23.8296 8.1818C23.9417 8.62456 24 9.08572 24 9.54246V10.5835C24 11.1042 23.9353 11.6228 23.8075 12.1276L23.7466 12.3681C23.6733 12.6574 23.5683 12.9378 23.4334 13.2041C23.1679 13.7284 22.7914 14.1887 22.3301 14.553L22.2548 14.6125C21.9648 14.8415 21.6477 15.0338 21.3106 15.185L20.8886 15.3744C20.6212 15.4944 20.3361 15.5702 20.0445 15.599L19.3575 15.6668C19.3021 15.6723 19.2463 15.6622 19.1964 15.6375C19.0947 15.5873 19.0303 15.4838 19.0303 15.3704V13.1624V11.7654C19.0303 11.5026 18.9796 11.2423 18.8809 10.9987C18.8191 10.8463 18.7391 10.7019 18.6427 10.5686L18.5166 10.3943C18.2956 10.0888 18.0167 9.82974 17.6958 9.63175L17.6557 9.60704C17.3628 9.42631 17.0374 9.30459 16.6978 9.24871C16.5561 9.22539 16.4127 9.21368 16.269 9.21368H4.9697V20.2256C4.9697 20.4619 4.99589 20.6975 5.04778 20.9281L5.09746 21.1487C5.17288 21.4838 5.32462 21.7969 5.54085 22.0638C5.64461 22.1918 5.76223 22.308 5.89156 22.4101L5.93061 22.4409C6.17697 22.6355 6.45561 22.7853 6.75381 22.8834L6.87564 22.9235C7.21898 23.0364 7.57813 23.094 7.93958 23.094H8.60606H16.1124C16.3603 23.094 16.6078 23.0738 16.8524 23.0335L17.261 22.9663C17.7068 22.893 18.1288 22.7145 18.492 22.4456C18.7678 22.2414 19.0044 21.989 19.1903 21.7005L19.7576 20.8205L19.9897 20.5341C20.4737 19.9369 21.0998 19.4707 21.8108 19.1783C22.0577 19.0767 22.313 18.9969 22.5737 18.9397L23.1738 18.808C23.2396 18.7936 23.3067 18.7863 23.374 18.7863H23.5888C23.6969 18.7863 23.8007 18.8289 23.8777 18.9049C23.9559 18.9822 24 19.0875 24 19.1975V23.453L23.9603 23.7666C23.9063 24.1933 23.789 24.6097 23.6124 25.0019C23.4673 25.3242 23.2833 25.6276 23.0646 25.9052L22.9328 26.0724C22.6757 26.3988 22.3763 26.6894 22.0424 26.9366C21.7325 27.166 21.3954 27.3562 21.0388 27.5029L20.9206 27.5515C20.3907 27.7695 19.831 27.9064 19.2603 27.9576L18.7879 28H5.19359C4.88333 28 4.57027 27.9718 4.26489 27.917C3.69261 27.8143 3.13531 27.6148 2.62891 27.3291L2.57384 27.2981C1.99537 26.9717 1.48971 26.5306 1.08793 26.0018C0.7688 25.5817 0.519999 25.1126 0.351236 24.6128L0.323917 24.5319C0.189243 24.1331 0.101712 23.7199 0.0631083 23.3007L0 22.6154V14.2418C0 13.9217 0.0291668 13.6023 0.0871385 13.2876L0.109781 13.1646C0.197632 12.6876 0.362019 12.228 0.596581 11.8035C0.843523 11.3566 1.16473 10.9549 1.54645 10.6158L1.71205 10.4686C2.02382 10.1917 2.37134 9.95774 2.7453 9.77315C3.17516 9.56098 3.63515 9.41636 4.10909 9.34438L4.9697 9.21368V5.12257C4.9697 4.73966 5.00459 4.35755 5.07395 3.98097L5.11738 3.74516C5.18031 3.40348 5.28422 3.07063 5.42685 2.75383C5.6059 2.35613 5.84445 1.98745 6.13375 1.66107C6.40662 1.35322 6.72229 1.08549 7.07063 0.866664L7.45832 0.623115C7.73759 0.447673 8.03718 0.306855 8.35046 0.203766L8.77567 0.0638479C8.9042 0.0215527 9.03865 0 9.17396 0H9.5282C9.63634 0 9.74012 0.0425972 9.81708 0.118567C9.89534 0.195827 9.93939 0.301219 9.93939 0.411194Z" fill="#333333"/>
</svg>
