<svg width="23" height="16" viewBox="0 0 23 16" fill="none" xmlns="http://www.w3.org/2000/svg">
<path d="M8 9C10.67 9 16 10.33 16 13V16H0V13C0 10.33 5.33 9 8 9ZM16.5 10.3125C18.6694 10.3125 23 11.3931 23 13.5625V16H17.5V14.4561H21.457V13.5625C21.457 13.06 18.8374 11.5752 16.5 11.5L16.2764 11.2031L16.0518 10.9062L15.6035 10.3125C15.7328 10.3061 16.3812 10.3125 16.5 10.3125ZM8 10.9004C5 10.9004 1.90039 12.36 1.90039 13V14.0996H14.0996V13C14.0996 12.36 10.97 10.9004 8 10.9004ZM16.5 3C17.362 3 18.1884 3.34266 18.7979 3.95215C19.4073 4.56164 19.75 5.38805 19.75 6.25C19.75 7.11195 19.4073 7.93836 18.7979 8.54785C18.1884 9.15734 17.362 9.5 16.5 9.5C15.638 9.5 14.8116 9.15734 14.2021 8.54785C13.5927 7.93836 13.25 7.11195 13.25 6.25C13.25 5.38805 13.5927 4.56164 14.2021 3.95215C14.8116 3.34266 15.638 3 16.5 3ZM8 0C9.06087 0 10.078 0.42173 10.8281 1.17188C11.5783 1.92202 12 2.93913 12 4C12 5.06087 11.5783 6.07798 10.8281 6.82812C10.078 7.57827 9.06087 8 8 8C6.93913 8 5.92202 7.57827 5.17188 6.82812C4.42173 6.07798 4 5.06087 4 4C4 2.93913 4.42173 1.92202 5.17188 1.17188C5.92202 0.42173 6.93913 0 8 0ZM16.5 4.54395C16.0475 4.54395 15.6139 4.72396 15.2939 5.04395C14.974 5.36393 14.7939 5.79747 14.7939 6.25C14.7939 6.70253 14.974 7.13607 15.2939 7.45605C15.6139 7.77604 16.0475 7.95605 16.5 7.95605C17.4425 7.95605 18.2061 7.1925 18.2061 6.25C18.2061 5.3075 17.4425 4.54395 16.5 4.54395ZM8 1.90039C7.44305 1.90039 6.90847 2.12082 6.51465 2.51465C6.12082 2.90847 5.90039 3.44305 5.90039 4C5.90039 4.55695 6.12082 5.09153 6.51465 5.48535C6.90847 5.87918 7.44305 6.09961 8 6.09961C9.16 6.09961 10.0996 5.16 10.0996 4C10.0996 2.84 9.16 1.90039 8 1.90039Z" fill="#333333"/>
</svg>
